# xmcd CD database file
#
# Track frame offsets:
#	150
#	20051
#	34301
#	49488
#	65913
#	88076
#	105363
#	121601
#	138288
#	152613
#	171475
#	206288
#
# Disc length: 3056 seconds
#
# Revision: 7
# Processed by: cddbd v1.5.2PL0 Copyright (c) Steve Scherf et al.
# Submitted via: CDex 1.70beta2
#
DISCID=a50bee0c
DTITLE=古巨基 - 星戰 Star Track
DYEAR=2005
DGENRE=Pop
TTITLE0=天才與白痴
TTITLE1=一生何求
TTITLE2=純真傳說
TTITLE3=輪流轉
TTITLE4=夢中人
TTITLE5=明星
TTITLE6=還是覺得你最好
TTITLE7=當年情
TTITLE8=甜蜜蜜
TTITLE9=Monica
TTITLE10=星戰
TTITLE11=Computer Data
EXTD=YEAR: 2005
EXTT0=
EXTT1=
EXTT2=
EXTT3=
EXTT4=
EXTT5=
EXTT6=
EXTT7=
EXTT8=
EXTT9=
EXTT10=
EXTT11=
PLAYORDER=
